<?xml version="1.0" encoding="UTF-8" standalone="no"?>
<svg
   width="20"
   height="20"
   viewBox="0 0 20 20"
   version="1.1"
   id="svg1"
   xmlns="http://www.w3.org/2000/svg"
   xmlns:svg="http://www.w3.org/2000/svg">
  <g id="layer1">
    <!-- apple body -->
    <path
       style="fill:#ffffff;stroke:none"
       d="M 10,7.2 C 8.7,5.9 7,6.4 7,8.7 7,12 8.4,15 10,15 11.6,15 13,12 13,8.7 13,6.4 11.3,5.9 10,7.2 Z"
       id="apple" />
    <!-- stem -->
    <path
       style="fill:none;stroke:#ffffff;stroke-width:1.4;stroke-linecap:round"
       d="M 10,6.9 C 10.3,5.5 10.8,5 11.6,4.7"
       id="stem" />
    <!-- leaf -->
    <path
       style="fill:#ffffff;stroke:none"
       d="M 11.6,4.7 C 12.8,4 13.9,4.4 13.6,5.2 12.9,5.8 12.1,5.5 11.6,4.7 Z"
       id="leaf" />
    <!-- left arrow pushing in -->
    <path
       style="fill:none;stroke:#ffffff;stroke-width:2;stroke-linecap:round;stroke-linejoin:round"
       d="M 1,10.5 H 5"
       id="larrow-shaft" />
    <path
       style="fill:none;stroke:#ffffff;stroke-width:2;stroke-linecap:round;stroke-linejoin:round"
       d="M 3,8.7 5,10.5 3,12.3"
       id="larrow-head" />
    <!-- right arrow pushing in -->
    <path
       style="fill:none;stroke:#ffffff;stroke-width:2;stroke-linecap:round;stroke-linejoin:round"
       d="M 19,10.5 H 15"
       id="rarrow-shaft" />
    <path
       style="fill:none;stroke:#ffffff;stroke-width:2;stroke-linecap:round;stroke-linejoin:round"
       d="M 17,8.7 15,10.5 17,12.3"
       id="rarrow-head" />
  </g>
</svg>
